# xmcd CD database file
#
# Track frame offsets:
#	150
#	12460
#	51522
#	70942
#	105537
#	139045
#	163542
#	200867
#	237890
#
# Disc length: 3633 seconds
#
# Revision: 1
# Processed by: cddbd v1.5.2PL0 Copyright (c) Steve Scherf et al.
# Submitted via: CDex 1.70beta2
#
DISCID=800e2f09
DTITLE=世界宗教音楽ライブラリー - ヒンドゥー叙事詩 ギータ・ゴーヴィンダ
DYEAR=1982
DGENRE=World
TTITLE0=プロローグ:雲の姿
TTITLE1=10人の愛の使者への賛歌
TTITLE2=愛の神への賛歌
TTITLE3=孤独なラーダは森をさまよう
TTITLE4=ラーダよ 春の祭典で神に出会え
TTITLE5=悲しみのラーダ
TTITLE6=愛がやってきて、ラーダの胸にとまるつがいの鳥を起こしにきた日
TTITLE7=ラーダを顧みなかったクリシュナの姿
TTITLE8=クリシュナへのラーダからの使者
EXTD=YEAR: 1982
EXTT0=
EXTT1=
EXTT2=
EXTT3=
EXTT4=
EXTT5=
EXTT6=
EXTT7=
EXTT8=
PLAYORDER=
